# xmcd CD database file
#
# Track frame offsets:
#	150
#	28756
#	64367
#	84407
#	111559
#	134734
#	158660
#	183410
#	233587
#
# Disc length: 3476 seconds
#
# Revision: 0
# Processed by: cddbd v1.5.2PL0 Copyright (c) Steve Scherf et al.
# Submitted via: CDex 1.70beta3
#
DISCID=7a0d9209
DTITLE=Helge Lien Trio - Asymmetrics
DYEAR=2002
DGENRE=Jazz
TTITLE0=Spiral Circle
TTITLE1=Mann Av Huse Forbi
TTITLE2=Nardis
TTITLE3=Nav og Natt
TTITLE4=Beneath It All
TTITLE5=Autumn Leaves
TTITLE6=Furuklokka
TTITLE7=Hypotek
TTITLE8=Spring Can Really Hang You Up The Most
EXTD=YEAR: 2002
EXTT0=
EXTT1=
EXTT2=
EXTT3=
EXTT4=
EXTT5=
EXTT6=
EXTT7=
EXTT8=
PLAYORDER=
